<svg id="图层_1" data-name="图层 1" xmlns="http://www.w3.org/2000/svg" viewBox="0 0 503.44 503.44"><defs><style>.cls-1{fill:#f7f7f7;}</style></defs><rect width="503.44" height="503.44" rx="89.7"/><path class="cls-1" d="M227.35,244.47,192.19,370c0,.07-.12.05-.14.11a1.31,1.31,0,0,1-1.18.9H80a1.35,1.35,0,0,1-.93-.36l-10-9.22c-.08-.07-.07-.18-.12-.27s-.12,0-.16-.08L60.9,346.38c-.06-.11,0-.23,0-.35s-.14-.21-.13-.34l.42-16.3c0-.06.06-.09.07-.16s0-.1,0-.15L65.79,312,94.46,205l3.91-14.61c0-.05.08-.07.1-.12s0-.12,0-.18L106.64,175c0-.07.13-.08.17-.14s0-.14.09-.2l16.64-16.08s.1,0,.15-.06,0-.09.09-.12L144,145.93c.08,0,.16,0,.24,0s.11-.11.19-.13l19-4.14c.05,0,.09,0,.15,0s.09-.06.14-.06H251.6c.06,0,.11.07.17.08s.12,0,.18,0,.18.16.28.22a1,1,0,0,1,.4.31,1.26,1.26,0,0,1,.2.46c0,.12.14.21.14.33s-.07.11-.08.18,0,.12,0,.18L242,184.07c0,.07-.12.05-.15.11a1.29,1.29,0,0,1-1.18.9H169.72l-3.2.31-3.88,1.12-5.47,2.79-4.76,3.44-2,3-.82,3.05L117.86,317.19l-1.13,4.24.11,4,2.52,4.36,3.56,3.46,3,1.3,2.94.3h12.37l2.85-.46,3.58-1.37,5.14-3.31,4.62-4.05,2-3.45.93-3.44,10-35.18H154.07a1.48,1.48,0,0,1-.35-.05c-.12,0-.18-.15-.28-.22a1.11,1.11,0,0,1-.4-.31,1.06,1.06,0,0,1-.2-.46c0-.12-.13-.2-.13-.33s.06-.11.06-.18,0-.11,0-.18l11.19-38.12c0-.12.15-.17.21-.27a1.23,1.23,0,0,1,.32-.42,1.41,1.41,0,0,1,.44-.18c.13,0,.22-.15.35-.15H226c.07,0,.11.07.18.08s.11,0,.17,0,.18.16.28.22a1.14,1.14,0,0,1,.41.31,1.25,1.25,0,0,1,.19.46c0,.12.14.21.14.34s-.06.1-.07.17S227.37,244.4,227.35,244.47Z" transform="translate(-4.2 -4.55)"/><path class="cls-1" d="M462.48,205.75c0,.1,0,.2,0,.3l-69.87,164.1c0,.06-.11,0-.15.09a1.28,1.28,0,0,1-1.08.69H322.44c-.18,0-.28-.15-.42-.22a1.39,1.39,0,0,1-.45-.24,1.23,1.23,0,0,1-.19-.47c-.06-.15-.18-.27-.18-.43s0,0,0-.07,0,0,0-.07l7-72.35-32.05,73c0,.06-.12,0-.15.1a1.3,1.3,0,0,1-1.1.72H238.11c-.17,0-.28-.15-.42-.22a1.2,1.2,0,0,1-.45-.23,1.29,1.29,0,0,1-.2-.48c-.06-.15-.18-.26-.18-.43s0,0,0-.06,0,0,0-.06l14-164.09a1.34,1.34,0,0,1,.32-.68s0-.13.09-.18a1.15,1.15,0,0,1,.64-.26c.11,0,.19-.13.31-.13h37.41s.06,0,.1,0,.07,0,.12,0,.24.16.37.23a1.29,1.29,0,0,1,.42.26,1.36,1.36,0,0,1,.2.48c.05.13.16.24.16.39s0,.06,0,.1,0,.07,0,.11l-8.91,93.26h13.4l25.82-61.13c0-.09.14-.11.19-.18a1.17,1.17,0,0,1,.36-.34,1,1,0,0,1,.47-.2c.09,0,.15-.09.24-.09h44.11s.05,0,.08,0,0,0,.08,0,.26.16.4.23a1.34,1.34,0,0,1,.44.24,1.36,1.36,0,0,1,.2.48c0,.14.17.25.17.42s0,0,0,.07,0,.06,0,.09l-6.74,60.41h13.38l41.75-94c0-.09.14-.12.2-.2a1.09,1.09,0,0,1,.37-.37,1.27,1.27,0,0,1,.43-.18c.1,0,.17-.11.28-.11h43.49c.11,0,.18.09.28.11s.21,0,.3,0,.1.13.17.18a1.17,1.17,0,0,1,.33.37,1.1,1.1,0,0,1,.2.47c0,.08.09.13.09.22S462.5,205.64,462.48,205.75Z" transform="translate(-4.2 -4.55)"/></svg>