<svg xmlns="http://www.w3.org/2000/svg" viewBox="0 0 290.85 67.27"><defs><style>.cls-1{fill:#231815;}</style></defs><g id="图层_2" data-name="图层 2"><g id="图层_1-2" data-name="图层 1"><path class="cls-1" d="M257,19.86c-.39,1.37-.82,2.74-1.17,4.13-.14.57-.34.8-1,.79-3.14,0-6.28,0-9.41,0h-.8l.74-2.76c.36-1.35.73-2.69,1.07-4.05.09-.35.22-.51.61-.51q4,0,8.09,0A2.14,2.14,0,0,1,257,18.67Z"/><path class="cls-1" d="M21.72,67.26H10.13A9.82,9.82,0,0,1,.27,59.67a9.67,9.67,0,0,1,.07-4.81C4.05,41,7.68,27.16,11.54,13.36,13.59,6,18.67,1.67,26.2.25A16.19,16.19,0,0,1,29.07,0c7.78,0,15.55,0,23.32,0a1.91,1.91,0,0,1,2,2.66c-.79,2.94-1.58,5.87-2.35,8.8a.69.69,0,0,1-.81.61h-19a9,9,0,0,0-9.18,7Q18.7,35.26,14.38,51.44a2.86,2.86,0,0,0,2.89,3.77h8.17a2.86,2.86,0,0,0,3-2.26q1.68-6.2,3.34-12.4A1.8,1.8,0,0,0,30,38.19c-1.78-.16-2.37-1-1.9-2.75s.85-3.21,1.29-4.81a1.82,1.82,0,0,1,2-1.56H44.68a1.87,1.87,0,0,1,2,2.54Q44.29,40.5,41.89,49.4q-2,7.43-4,14.87a3.65,3.65,0,0,1-3.91,3H21.72Z"/><path class="cls-1" d="M134.92,67.26l2.16-8q5.52-20.56,11-41.14a.71.71,0,0,1,.84-.65c2.54,0,5.09,0,7.64,0a1.84,1.84,0,0,1,2,2.59Q155.11,33,151.65,45.87a1.81,1.81,0,0,0,.75,2.28,1.77,1.77,0,0,0,2.35-.48c2.31-2.31,4.63-4.61,6.93-6.94a2.4,2.4,0,0,1,1.86-.79c3,0,2.44-.23,4.05,2.15.78,1.14,1.54,2.29,2.31,3.44a1.82,1.82,0,0,0,3.4-.56q3.57-13.32,7.12-26.65c.18-.66.41-.91,1.13-.89,2.48.06,5,0,7.45,0A1.84,1.84,0,0,1,191,20l-10.08,37.6-1.78,6.64a3.67,3.67,0,0,1-3.9,3c-2.43,0-4.87,0-7.31,0a.69.69,0,0,1-.78-.57q-1.76-4.87-3.55-9.74a3.56,3.56,0,0,0-5.2-2,4.61,4.61,0,0,0-.91.74q-5.55,5.54-11.08,11.07a1.41,1.41,0,0,1-1.09.47c-3.21,0-6.41,0-9.62,0Z"/><path class="cls-1" d="M209.05,52c.35-1.33.67-2.51,1-3.68.57-2.16,1.16-4.3,1.72-6.46a.67.67,0,0,1,.64-.58,10.8,10.8,0,0,0,8.84-8c.22-.71.4-1.44.56-2.16a2.43,2.43,0,0,0-2.16-3.08,13.53,13.53,0,0,0-7.44,1.15A10.64,10.64,0,0,0,206.64,36c-1.44,5.27-2.84,10.55-4.25,15.82a3.65,3.65,0,0,0,3.77,4.86h20.9c-.23.84-.44,1.62-.65,2.41-.48,1.79-.95,3.59-1.45,5.38a3.53,3.53,0,0,1-3.36,2.74,5.68,5.68,0,0,1-.59,0c-5.62,0-11.24,0-16.86,0A12.45,12.45,0,0,1,193,61.18a11.85,11.85,0,0,1-1.53-9.59c1.65-6.38,3.18-12.81,5.17-19.09,2.6-8.22,8.4-13.16,16.9-14.72a27.66,27.66,0,0,1,10.34,0,11.48,11.48,0,0,1,9,10.31,19.52,19.52,0,0,1-1,6.31,23.33,23.33,0,0,1-4.24,9.29,21.15,21.15,0,0,1-14.37,8.13c-.86.11-1.74.13-2.62.17C210.2,52,209.7,52,209.05,52Z"/><path class="cls-1" d="M71,67.18q.93-3.51,1.87-7C74.2,55,75.54,49.9,77,44.79a2.24,2.24,0,0,0-2.84-2.87c-3.32,1-6.68,1.78-10,2.69a7.59,7.59,0,0,0,.68,14.86,2.22,2.22,0,0,1,1.87,2.85c-.39,1.5-.82,3-1.21,4.49a.51.51,0,0,1-.57.46c-2.64,0-5.27,0-7.9-.08-3.89-.17-7.55-3.75-8.08-7.63a12.67,12.67,0,0,1,.55-5.05c.57-2.06,1.12-4.13,1.69-6.19A15.1,15.1,0,0,1,62.46,37.1C66.7,36,71,34.82,75.19,33.68a3.57,3.57,0,0,0,2.74-4.11,3.64,3.64,0,0,0-3.7-3c-5.46,0-10.93,0-16.4,0H57c.6-2.25,1.18-4.44,1.77-6.63.18-.67.39-1.34.54-2,.08-.38.26-.48.63-.48,1.56,0,3.11,0,4.67,0H85.09a7.56,7.56,0,0,1,7.81,8.22A21.43,21.43,0,0,1,92,29.56Q87.35,47,82.66,64.43a3.5,3.5,0,0,1-3.39,2.79c-2.69.07-5.4,0-8.1,0A1.06,1.06,0,0,1,71,67.18Z"/><path class="cls-1" d="M90.89,67.18,104.34,17h22.93a9.05,9.05,0,0,1,9.36,8,11,11,0,0,1-.51,4.47q-4.68,17.34-9.32,34.68a3.71,3.71,0,0,1-4,3.13H115c.23-.89.43-1.71.65-2.52l8.85-33a4,4,0,0,0-4-5.2q-2.2,0-4.41,0a4,4,0,0,0-4.19,3.18q-4.6,17.22-9.23,34.43L102,66.77c-.08.29-.16.5-.55.5-3.43,0-6.85,0-10.28,0A1.5,1.5,0,0,1,90.89,67.18Z"/><path class="cls-1" d="M233.22,67.18q5.11-19.08,10.22-38.08h11c-.25,1-.49,1.94-.75,2.9Q249.32,48.17,245,64.33a3.59,3.59,0,0,1-3.58,2.91c-2.63.05-5.26,0-7.9,0A1.5,1.5,0,0,1,233.22,67.18Z"/><path class="cls-1" d="M278,0q6,0,9.43,3.46t3.46,9.36q0,6-3.53,9.54a12.87,12.87,0,0,1-9.43,3.49q-6.06,0-9.47-3.39T265,13q0-6,3.42-9.5T278,0Zm0,22.39c3,0,5.33-.83,6.91-2.48a9.78,9.78,0,0,0,2.38-7c0-3.07-.8-5.41-2.38-7S281,3.46,278,3.46s-5.31.85-6.84,2.55a9.89,9.89,0,0,0-2.31,6.88Q268.81,22.39,278,22.39Zm5.9-11.81c0,2.16-.89,3.56-2.66,4.18l3,5.18h-4.54l-2.37-4.75h-.72v4.75h-4V5.83h5.69a7.46,7.46,0,0,1,4,1C283.34,7.45,283.86,8.71,283.86,10.58Zm-7.27,1.8h1.08a3.6,3.6,0,0,0,1.73-.32c.38-.22.57-.71.57-1.48s-.18-1.24-.54-1.44a4,4,0,0,0-1.76-.28h-1.08Z"/></g></g></svg>