<svg xmlns="http://www.w3.org/2000/svg" viewBox="0 0 50 50"><defs><style>.a{fill:#f08449;}</style></defs><path class="a" d="M25,.48A24.52,24.52,0,1,0,49.52,25h0A24.52,24.52,0,0,0,25,.48ZM13.23,11.27a2.95,2.95,0,1,1-2.94,3h0a3,3,0,0,1,2.94-3ZM11.91,37.21l-5-3.58s7-5.73,6.59-7.64-5.21-4.28-5.21-4.28l2.24-3.16s5.73,3.75,6.12,6.72S11.91,37.2,11.91,37.2Zm29.59-5.6s-.47,3.75-3.69,5.07-8.17.33-8.17.33l.27-2a11.57,11.57,0,0,0,4.8.07,3.75,3.75,0,0,0,2.38-2V18.29a4.18,4.18,0,0,0-2-2.56c-1.71-1.05-2.57-.9-4.41-.66A21.86,21.86,0,0,0,26,16.65l-1.57,3.09H35.11v2.11H28.58v2.64h6.79v1.84l-6.65.26v5l3.17-1.39L31.63,28l2.56-.53,1.91,5-3.16,1.42-.4-1.79s-6,2.53-8.37,2.69-4.75-.38-5.89-2-.9-4.87-.9-4.87l4.26.11a4.61,4.61,0,0,0,.51,3c.84,1.17,2.73.89,2.73.89V26.46l-6.58-.2V24.47H25l-.07-2.64-2.07-.41S21.15,24.11,20,24s-1.29-1.59-1.29-1.59L22.36,18l-2-.2-3,3.49-2.24-2a16.92,16.92,0,0,0,2.9-3.58A16.06,16.06,0,0,0,19.8,11.5L23.42,13l-1.06,2s.27.27,1.19.14,7-3.16,11.13-2.43,6.78,4,6.78,6.58Z"/></svg>