<svg xmlns="http://www.w3.org/2000/svg" viewBox="0 0 50 50"><defs><style>.a{fill:#41b14b;}</style></defs><path class="a" d="M16.68,16.76A1.58,1.58,0,0,0,15,18.18a1.59,1.59,0,0,0,1.7,1.42,1.35,1.35,0,0,0,1.43-1.42A1.33,1.33,0,0,0,16.68,16.76Z"/><path class="a" d="M24.57,19.6A1.37,1.37,0,0,0,26,18.18a1.34,1.34,0,0,0-1.43-1.42,1.58,1.58,0,0,0-1.7,1.42A1.59,1.59,0,0,0,24.57,19.6Z"/><path class="a" d="M34.42,25h0a1.21,1.21,0,0,0-1.1,1.14,1.18,1.18,0,0,0,1.1,1.13,1.3,1.3,0,0,0,1.42-1.13A1.3,1.3,0,0,0,34.42,25Z"/><path class="a" d="M28.23,25h0a1.22,1.22,0,0,0-1.1,1.14,1.19,1.19,0,0,0,1.1,1.13,1.3,1.3,0,0,0,1.43-1.13A1.31,1.31,0,0,0,28.23,25Z"/><path class="a" d="M25,.48A24.52,24.52,0,1,0,49.52,25,24.52,24.52,0,0,0,25,.48ZM20.34,31.29a15.94,15.94,0,0,1-3.9-.6l-3.91,2,1.1-3.45c-2.81-2-4.52-4.59-4.52-7.68,0-5.43,5.09-9.7,11.23-9.7,5.51,0,10.38,3.41,11.34,8a9.45,9.45,0,0,0-1.07-.07c-5.33.07-9.52,4.08-9.52,9.06a8.68,8.68,0,0,0,.36,2.38C21.09,31.25,20.7,31.29,20.34,31.29Zm16.64,4,.85,2.84-3.06-1.7A13.91,13.91,0,0,1,31.4,37c-5.37,0-9.6-3.7-9.6-8.28s4.2-8.25,9.53-8.25c5.08,0,9.56,3.73,9.56,8.28C40.89,31.29,39.21,33.56,37,35.27Z"/></svg>