<svg xmlns="http://www.w3.org/2000/svg" viewBox="0 0 200 200"><defs><style>.a{fill:#f7f8f8;}</style></defs><path class="a" d="M181.49,102.5a15.64,15.64,0,0,0-30.24.33H146.2V60.22h5.05a15.6,15.6,0,0,0,17.44,11.53A15.8,15.8,0,0,0,182,56.69a15.61,15.61,0,0,0-30.72-4.28h-8.32c-6.08-9.62-13.21-17.08-21.27-22.22A57.73,57.73,0,0,0,95.5,21.42l0,0s0,0,0,0q-3.1-.27-6.21-.27c-12.26,0-22.69,3.39-31.05,10.11S43.48,48,39,61.17l-.08.24,0,.23C34.48,83.77,28.85,98.36,22.21,105c-2.36,2.36-3.74,4.66-4.13,6.86a6.73,6.73,0,0,0,1.21,5.3c1.9,2.67,6,4.62,9.64,4.62a4.09,4.09,0,0,1,2.94,1.26,9.43,9.43,0,0,1,2.1,3.78c1.11,3.33,1.68,8.41,1.68,15.09,0,3.34,1.13,5.89,3.35,7.54s5.55,2.51,10,2.51c6.11,0,10.64,1.41,13.4,4.19,2.22,2.22,3.35,5.34,3.35,9.23v12.8l60.32.66V148.59c.76-1,1.5-2,2.22-3l.13,0,.1-.32c5.48-7.45,9.72-13.66,12.64-18.53a59.34,59.34,0,0,0,3.78-7.13,18.91,18.91,0,0,0,.94-2.61,7.8,7.8,0,0,0,.31-2v-4.42h5.06a15.63,15.63,0,1,0,30.19-8.14Zm-15.09-54h0a7.86,7.86,0,1,1-3.46,14.91,7.59,7.59,0,0,1-4-4.69A7.87,7.87,0,0,1,166.4,48.49Zm-28,54.34H114.88V85.91h0V78.12h0V60.22h23.53Zm-41-73.37c14.61,2,26.54,9.57,36.17,23H107.13v0h0V78.14H82.27a15.74,15.74,0,0,0-7-8.49l-.09-.05-.62-.34-.15-.07-.57-.27-.18-.08-.34-.14L73,68.59l-.18-.07A45.26,45.26,0,0,1,78,49.86C82.06,42.24,88.56,35.38,97.37,29.46Zm22.5,114.45L118.31,146V171l-44.74-.49v-5.09c0-6-1.89-11-5.63-14.72-4.29-4.3-10.65-6.49-18.91-6.49-3.92,0-5.16-.79-5.38-.95s-.23-1.13-.23-1.33c0-7.61-.68-13.36-2.09-17.54a17,17,0,0,0-4-6.82A11.74,11.74,0,0,0,28.91,114a5.46,5.46,0,0,1-3-1.09,8.81,8.81,0,0,1,1.85-2.37c7.83-7.85,14-23.26,18.79-47.1C50.47,51.75,56,43,63.07,37.33c6.08-4.87,13.31-7.57,22-8.24-12.26,10.65-18.94,23.57-20,38.63a15.78,15.78,0,0,0-12.9,19.71,14.65,14.65,0,0,0,2.45,5.13A15.9,15.9,0,0,0,68.5,99c.22.84.43,1.67.67,2.47a50.41,50.41,0,0,0,9.54,18.6c8.08,9.72,21.1,17,41.6,23.28C120.16,143.52,120,143.72,119.87,143.91Zm17.94-27.32a60.92,60.92,0,0,1-3.3,6.19c-2.26,3.76-5.37,8.41-9.29,13.87-20.5-6-33.13-12.68-40.53-21.59-4.35-5.21-7-11.21-8.77-18.53a15.74,15.74,0,0,0,7-10.62h24.17v24.75h7.79v0h23.53v4.2h0A16,16,0,0,1,137.81,116.59Zm28.59-2.09h0a7.85,7.85,0,1,1,7.83-7.87A7.85,7.85,0,0,1,166.4,114.5Z"/></svg>