<svg xmlns="http://www.w3.org/2000/svg" viewBox="0 0 200 200"><defs><style>.a{fill:#f7f8f8;}</style></defs><path class="a" d="M96.21,19.65c-.69-.92-1,0-1,0L75.19,184l21.56.45L96.21,19.66Z"/><polygon class="a" points="60.7 150.09 60.71 150.08 59.19 140.17 53.9 148.29 43.19 147.97 50 155.15 45.72 164.6 55.3 159.72 62.46 166.55 61.96 156.28 71.28 152.06 60.7 150.09"/><polygon class="a" points="60.71 150.08 60.71 150.08 60.71 150.09 60.71 150.08"/><polygon class="a" points="79.33 88.97 68.5 92.39 63.47 82.8 60.19 96.48 48.6 102.5 57.8 104.62 55.66 118.48 64.6 106.9 75.19 110.18 71.4 99.41 79.33 88.97"/><polygon class="a" points="29.58 111.95 23.55 120.1 15.74 121.4 20.52 126.62 16.11 135.59 23.92 129.4 29.45 134.78 29.83 126.15 36.64 120.61 29.46 120.28 29.58 111.95"/><polygon class="a" points="29.58 111.95 29.58 111.95 29.58 111.95 29.58 111.95"/><polygon class="a" points="43.95 83.77 47.47 79.36 42.94 80.51 40.54 76.27 38.39 82.79 32.49 85.72 36.52 86.71 35.52 92.57 40.29 87.2 45.07 88.97 43.95 83.77"/><polygon class="a" points="64.59 60.64 66.87 61.95 67.88 58.67 71.39 55.9 68.63 55.41 68.63 52.8 65.73 56.24 61.82 56.89 63.2 59.48 60.81 62.91 64.59 60.64"/><path class="a" d="M162.73,36.38h0s-16.81-10.75-48.61-3.2c0,0,40.64-3.88,50.89,27.23,0,0,7.08,31.57-17.13,55.83,0,0-17.51,19.46-29.18,24.25L103.16,16.25s-1.24-2.06-1.24,1.15V182.59s18.91-6.63,20.67-9.85l-2.47-20.58s52-26.09,62.56-69.33C182.68,82.83,192.58,51,162.73,36.38Z"/></svg>