<svg xmlns="http://www.w3.org/2000/svg" viewBox="0 0 200 200"><defs><style>.a{fill:#f7f8f8;}</style></defs><path class="a" d="M177.44,137.84l-41.53-33a19.37,19.37,0,0,0,.38-8.15c-1.55-15.53-15.91-26.79-31.44-25.23a31.2,31.2,0,0,0-9.7,3.1c-1.17.78-1.94,1.55-1.94,2.72a4.37,4.37,0,0,0,1.16,3.1l17.08,14-8.93,10.87-17.08-14a4.14,4.14,0,0,0-3.1-.39A3.51,3.51,0,0,0,80,93.2a28.8,28.8,0,0,0-.78,10.1c1.56,15.52,15.92,26.78,31.44,25.23a19.19,19.19,0,0,0,7.77-1.94l41.53,33a3,3,0,0,0,1.94.78A4,4,0,0,0,165,158.8l12.81-16.3c.78-.39.78-1.55.78-2.32A2.78,2.78,0,0,0,177.44,137.84Z"/><path class="a" d="M106.79,142.5a3.44,3.44,0,0,0-3.1-1.93h-1.17c-22.12,0-40-17.86-39.59-41.54,0-13.2,5-24.07,14.36-30.67,16.3-12,39.6-12,54.74-.39l1.93,2c5.44,5.43,7,7,9.32,6.2,1.94-.38,8.15-2.32,31.05-8.92a3.52,3.52,0,0,0,2.34-2.33,3,3,0,0,0-.78-3.11L147.94,29.93c-1.16-1.55-3.1-1.55-4.66-.38L130.86,39.64a22.82,22.82,0,0,0-4.66-1.94l-1.55-15.92a3.68,3.68,0,0,0-3.49-3.1H85.06a3.42,3.42,0,0,0-3.5,3.1L80,37.7c-1.55.77-3.11,1.16-4.66,1.94L62.93,29.16a3.52,3.52,0,0,0-4.66,0L32.65,54.77c-1.55,1.56-1.55,3.5-.39,4.66l10.1,12.43a23.45,23.45,0,0,0-2,4.66L24.5,78.07a3.68,3.68,0,0,0-3.11,3.49v36.1a3.42,3.42,0,0,0,3.11,3.49l15.91,1.55c.78,1.56,1.17,3.11,2,4.66L31.87,139.78a3.55,3.55,0,0,0,0,4.66l25.62,25.62c1.56,1.56,3.5,1.56,4.66.39l12.42-10.09a24.53,24.53,0,0,0,4.66,1.94l1.55,15.92a3.69,3.69,0,0,0,3.5,3.1h34.55a2.58,2.58,0,0,0,2.71-1.55,2.91,2.91,0,0,0,.39-3.1Zm-19.4,32.22L86.22,159.2a3.32,3.32,0,0,0-2.33-2.72,65.08,65.08,0,0,1-7.76-3.11c-1.16-.77-2.33-.39-3.49.39L61,163.46,39.64,142.11l9.71-11.64a2.89,2.89,0,0,0,.38-3.49,47,47,0,0,1-3.1-7.77,3.34,3.34,0,0,0-2.72-2.33l-15.14-1.55V85.05l15.14-1.16a3.34,3.34,0,0,0,2.72-2.33,46.11,46.11,0,0,1,3.1-7.77c.78-1.16.39-2.32-.38-3.49L39.64,58.65,61,37.3,72.63,47a2.9,2.9,0,0,0,3.5.39,46,46,0,0,1,7.76-3.11,3.31,3.31,0,0,0,2.33-2.71l1.55-15.15h30.28l1.16,15.15a3.34,3.34,0,0,0,2.33,2.71,46.13,46.13,0,0,1,7.77,3.11c1.16.78,2.32.38,3.49-.39l11.65-9.71L167,62.93c-7.37,2.32-20.18,6.21-24.45,7.37a37.58,37.58,0,0,1-4.27-3.88l-2.33-2.33C118.05,50.5,91.65,50.5,73,64.48c-10.87,8.15-17.08,21-17.08,36.1a47.16,47.16,0,0,0,45.81,47l12,27.17Z"/></svg>