<svg xmlns="http://www.w3.org/2000/svg" viewBox="0 0 200 200"><defs><style>.a{fill:#f7f8f8;}</style></defs><path class="a" d="M139.78,119.44l-21.34-17a9.9,9.9,0,0,0,.2-4.19,14.74,14.74,0,0,0-16.15-13,16.06,16.06,0,0,0-5,1.6c-.6.4-1,.79-1,1.39a2.27,2.27,0,0,0,.6,1.6l8.77,7.18-4.58,5.58-8.78-7.18a2.1,2.1,0,0,0-1.59-.2,1.8,1.8,0,0,0-1.2,1.2,14.55,14.55,0,0,0,15.75,18.14,9.9,9.9,0,0,0,4-1l21.34,16.94a1.46,1.46,0,0,0,1,.4,2.08,2.08,0,0,0,1.6-.79l6.58-8.38c.4-.2.4-.8.4-1.19A1.43,1.43,0,0,0,139.78,119.44Z"/><path class="a" d="M103.49,121.83a1.77,1.77,0,0,0-1.6-1h-.59c-11.37,0-20.54-9.18-20.34-21.34,0-6.78,2.59-12.36,7.38-15.75,8.37-6.18,20.33-6.18,28.11-.2l1,1c2.79,2.79,3.59,3.59,4.78,3.19,1-.2,4.19-1.2,16-4.59a1.8,1.8,0,0,0,1.2-1.2,1.54,1.54,0,0,0-.4-1.59L124.63,64a1.63,1.63,0,0,0-2.4-.2L115.85,69a12.74,12.74,0,0,0-2.39-1l-.8-8.18a1.89,1.89,0,0,0-1.79-1.59H92.32a1.76,1.76,0,0,0-1.79,1.59L89.73,68c-.8.4-1.59.6-2.39,1L81,63.61a1.81,1.81,0,0,0-2.39,0L65.41,76.77a1.64,1.64,0,0,0-.2,2.39l5.18,6.38a12.23,12.23,0,0,0-1,2.4l-8.17.79a1.9,1.9,0,0,0-1.6,1.8v18.54a1.75,1.75,0,0,0,1.6,1.79l8.17.8c.4.8.6,1.6,1,2.4L65,120.44a1.81,1.81,0,0,0,0,2.39L78.17,136a1.64,1.64,0,0,0,2.39.2L86.94,131a12.16,12.16,0,0,0,2.39,1l.8,8.18a1.89,1.89,0,0,0,1.79,1.59h17.75a1.34,1.34,0,0,0,1.4-.8,1.47,1.47,0,0,0,.19-1.59Zm-10,16.55-.6-8a1.7,1.7,0,0,0-1.19-1.4,32.56,32.56,0,0,1-4-1.6,1.54,1.54,0,0,0-1.79.2l-6,5-11-11,5-6a1.47,1.47,0,0,0,.2-1.79,23.21,23.21,0,0,1-1.59-4,1.72,1.72,0,0,0-1.4-1.2l-7.78-.8V92.32l7.78-.6a1.7,1.7,0,0,0,1.4-1.19,22.89,22.89,0,0,1,1.59-4,1.51,1.51,0,0,0-.2-1.79l-5-6,11-11,6,5a1.49,1.49,0,0,0,1.8.2,22.58,22.58,0,0,1,4-1.59A1.72,1.72,0,0,0,92.92,70l.8-7.78h15.55l.6,7.78a1.72,1.72,0,0,0,1.2,1.4,22.79,22.79,0,0,1,4,1.59,1.52,1.52,0,0,0,1.8-.2l6-5L134.39,81c-3.78,1.19-10.36,3.19-12.56,3.78a19.63,19.63,0,0,1-2.19-2l-1.2-1.2c-9.17-7-22.73-7-32.3.2-5.58,4.19-8.77,10.77-8.77,18.55a24.22,24.22,0,0,0,23.53,24.12l6.18,14Z"/></svg>