<svg xmlns="http://www.w3.org/2000/svg" viewBox="0 0 200 200"><defs><style>.a{fill:#f7f8f8;}</style></defs><path class="a" d="M141.86,101.29a8,8,0,0,0-15.54.17h-2.59V79.57h2.59a8,8,0,0,0,9,5.92,8.12,8.12,0,0,0,6.82-7.74,8,8,0,0,0-15.78-2.19h-4.27a35.94,35.94,0,0,0-10.93-11.42,29.63,29.63,0,0,0-13.43-4.5h0c-1.06-.1-2.13-.14-3.19-.14-6.3,0-11.66,1.74-16,5.19S71,73.26,68.69,80.05l0,.13,0,.12C66.34,91.66,63.45,99.16,60,102.58a6.91,6.91,0,0,0-2.12,3.52,3.48,3.48,0,0,0,.62,2.72,6.46,6.46,0,0,0,5,2.37,2.08,2.08,0,0,1,1.51.65,4.89,4.89,0,0,1,1.08,1.94,26.28,26.28,0,0,1,.86,7.75,4.55,4.55,0,0,0,1.72,3.88,8.53,8.53,0,0,0,5.17,1.29c3.14,0,5.46.72,6.88,2.15a6.44,6.44,0,0,1,1.72,4.74v6.57l31,.34V125c.39-.52.77-1,1.14-1.54l.07,0,.05-.17c2.81-3.83,5-7,6.49-9.52a31.71,31.71,0,0,0,1.94-3.66,10.69,10.69,0,0,0,.48-1.34,3.94,3.94,0,0,0,.16-1v-2.27h2.6a8,8,0,1,0,15.51-4.18Zm-7.75-27.75h0a4,4,0,1,1-1.78,7.66,3.91,3.91,0,0,1-2.07-2.41A4.05,4.05,0,0,1,134.11,73.54Zm-14.38,27.92H107.64v-8.7h0v-4h0V79.57h12.09ZM98.65,63.77c7.5,1,13.63,4.91,18.58,11.79H103.66v0h0V88.77H90.89a8.1,8.1,0,0,0-3.61-4.36l0,0-.31-.17-.08,0L86.55,84l-.1-.05-.17-.07-.14,0-.1,0a23.42,23.42,0,0,1,2.66-9.59A29.73,29.73,0,0,1,98.65,63.77Zm11.56,58.78-.81,1.08v12.81l-23-.25v-2.61A10.26,10.26,0,0,0,83.53,126c-2.2-2.21-5.47-3.34-9.71-3.34a5.11,5.11,0,0,1-2.76-.48c-.11-.09-.12-.58-.12-.69a29.36,29.36,0,0,0-1.07-9,8.62,8.62,0,0,0-2.05-3.5,6,6,0,0,0-4.34-1.82,2.82,2.82,0,0,1-1.56-.56,4.4,4.4,0,0,1,.95-1.22c4-4,7.19-12,9.66-24.19,2-6,4.89-10.51,8.5-13.4a19.91,19.91,0,0,1,11.29-4.23C86,69.05,82.59,75.69,82.06,83.42a8.1,8.1,0,0,0-6.62,10.13,7.52,7.52,0,0,0,1.26,2.63,8.12,8.12,0,0,0,7.12,3.3c.11.44.22.87.34,1.28a25.73,25.73,0,0,0,4.91,9.55c4.15,5,10.83,8.74,21.36,12C110.35,122.36,110.29,122.46,110.21,122.55Zm9.21-14a30,30,0,0,1-1.69,3.18c-1.16,1.93-2.76,4.32-4.78,7.12-10.53-3-17-6.51-20.81-11.08a22.64,22.64,0,0,1-4.51-9.52,8.1,8.1,0,0,0,3.6-5.46h12.41v12.72h4v0h12.09v2.16h0A6.86,6.86,0,0,1,119.42,108.52Zm14.69-1.07h0a4,4,0,0,1-3.94-5,4,4,0,0,1,3-3,4,4,0,1,1,1,8Z"/></svg>