<svg xmlns="http://www.w3.org/2000/svg" viewBox="0 0 200 200"><defs><style>.a{fill:#f7f8f8;}</style></defs><path class="a" d="M98.05,58.73c-.35-.47-.54,0-.54,0L87.26,143.12l11.07.23-.28-84.62Z"/><polygon class="a" points="79.81 125.73 79.82 125.72 79.04 120.63 76.32 124.81 70.82 124.64 74.32 128.33 72.12 133.18 77.04 130.68 80.72 134.18 80.46 128.91 85.25 126.74 79.81 125.73"/><polygon class="a" points="79.82 125.72 79.82 125.72 79.82 125.73 79.82 125.72"/><polygon class="a" points="89.38 94.34 83.82 96.09 81.24 91.16 79.55 98.19 73.6 101.28 78.32 102.37 77.22 109.49 81.82 103.54 87.25 105.23 85.31 99.69 89.38 94.34"/><polygon class="a" points="63.83 106.14 60.73 110.32 56.72 110.99 59.17 113.67 56.91 118.28 60.92 115.1 63.76 117.86 63.96 113.43 67.45 110.59 63.77 110.41 63.83 106.14"/><polygon class="a" points="63.83 106.14 63.83 106.14 63.83 106.14 63.83 106.14"/><polygon class="a" points="71.21 91.67 73.02 89.4 70.69 89.99 69.46 87.81 68.35 91.16 65.32 92.66 67.39 93.17 66.88 96.18 69.33 93.42 71.79 94.34 71.21 91.67"/><polygon class="a" points="81.81 79.78 82.98 80.46 83.5 78.77 85.3 77.35 83.89 77.1 83.89 75.76 82.4 77.52 80.39 77.86 81.1 79.19 79.87 80.95 81.81 79.78"/><path class="a" d="M132.22,67.32h0s-8.63-5.53-25-1.65c0,0,20.88-2,26.14,14,0,0,3.64,16.21-8.8,28.68,0,0-9,10-15,12.45l-8-63.81s-.64-1-.64.59v84.85s9.72-3.4,10.62-5.06l-1.27-10.57s26.7-13.4,32.14-35.61C142.47,91.18,147.56,74.84,132.22,67.32Z"/></svg>